<svg xmlns="http://www.w3.org/2000/svg" width="160" height="48" viewBox="0 0 160 48">
    <g fill="none" fill-rule="evenodd">
        <path fill="#EC5527" d="M22.5 36.156s-1.025-1.016-2.271-2.807c-.146.1-.31.177-.487.224-.291 1.207-.44 1.935-.504 1.919 1.044.433 2.16.728 3.325.87l-.064-.206z"/>
        <path fill="#2FA1DA" d="M14.022 31.468a12.597 12.597 0 0 0 4.232 3.565c0-.002.145-.602.4-1.555a1.55 1.55 0 0 1-.867-1.1c-2.403-.26-3.757-.907-3.765-.91z"/>
        <path fill="#EC5527" d="M36.681 23.1c-.024.045-.423.78-1.212 1.812a1.515 1.515 0 0 1-.004 1.419c.468.789.686 1.303.686 1.303l.028.05c.353-1.142.545-2.352.545-3.607 0-.33-.017-.654-.043-.977"/>
        <path fill="#FAB415" d="M24.185 44.862a21.373 21.373 0 0 1-14.002-5.18l1.8-1.77h.002l2.107-2.071C10.7 33.02 8.545 28.804 8.545 24.094c0-2.764.743-5.358 2.041-7.6l-2.165-2.13a17.989 17.989 0 0 0-2.846 9.73c0 4.521 1.669 8.659 4.432 11.852l-1.811 1.782-.009-.01-2.078 2.044c4.43 4.899 10.886 7.986 18.076 7.986 5.162 0 9.944-1.592 13.872-4.3l-2.112-2.076a21.407 21.407 0 0 1-11.76 3.49"/>
        <path fill="#EC5527" d="M43.438 10.37l-2.111 2.076a20.548 20.548 0 0 1 3.52 11.52c0 5.249-1.97 10.045-5.222 13.716L37.813 35.9l.002-.002-2.108-2.074a15.71 15.71 0 0 1-12.111 5.65c-2.823 0-5.47-.736-7.757-2.023l-2.164 2.128a18.755 18.755 0 0 0 9.92 2.815c4.674 0 8.944-1.696 12.212-4.494l1.802 1.773-.003.003 2.079 2.044c4.967-4.356 8.096-10.696 8.096-17.755 0-5.056-1.607-9.742-4.343-13.596"/>
        <path fill="#2FA1DA" d="M33.948 8.513a18.75 18.75 0 0 0-9.763-2.719c-4.58 0-8.772 1.628-12.015 4.327l-1.944-1.912a.016.016 0 0 0 .004-.002L8.15 6.162C3.152 10.52 0 16.88 0 23.965c0 5.064 1.61 9.758 4.354 13.614l2.112-2.076a20.552 20.552 0 0 1-3.532-11.538c0-5.257 1.975-10.06 5.235-13.733l.885.87.013-.011 3.153 3.1a15.713 15.713 0 0 1 11.965-5.476c2.756 0 5.345.702 7.593 1.932l2.17-2.134z"/>
        <path fill="#7EBD41" d="M40.164 10.19l2.084-2.038-.151-.168a24.064 24.064 0 0 0-1.66-1.632l-.157-.154A24.408 24.408 0 0 0 24.185.183a24.355 24.355 0 0 0-13.727 4.201l2.114 2.08a21.407 21.407 0 0 1 11.613-3.396 21.377 21.377 0 0 1 14.007 5.183l-1.943 1.91-2.109 2.071c3.473 2.82 5.685 7.087 5.685 11.862 0 2.682-.698 5.203-1.926 7.398l2.173 2.137a17.985 17.985 0 0 0 2.723-9.535c0-4.593-1.721-8.791-4.564-12.005l1.933-1.9z"/>
        <path fill="#EC5527" d="M34.706 27.03a1.585 1.585 0 0 1-1.147.046c-1.76 1.729-4.281 3.572-7.614 4.518a22.931 22.931 0 0 1-5.093.862l-.007.027c.802 1.104 1.845 2.357 3.284 3.979 5.139 0 9.556-3.029 11.514-7.368l-.02-.06a12.219 12.219 0 0 0-.917-2.004"/>
        <path fill="#FAB415" d="M32.817 24.691c-1.575-1.872-3.758-3.65-6.521-4.708a1.576 1.576 0 0 1-1.515.574c-.27.425-.543.875-.815 1.357-1.766 3.128-2.917 6.398-3.662 8.96.23.18.408.421.507.7 1.83-.05 3.804-.35 5.701-1.102 2.765-1.098 4.747-2.593 6.208-4.071a1.518 1.518 0 0 1 .097-1.71"/>
        <path fill="#7EBD41" d="M31.371 14.187c-.049.016-2.255.74-4.954 4.081.132.226.21.489.21.77 0 .026-.003.053-.004.08a19.93 19.93 0 0 1 1.814.815c2.291 1.17 3.996 2.758 5.202 4.2a1.582 1.582 0 0 1 .97.034c.746-1.022 1.268-1.911 1.674-2.487-.641-3.063-2.434-5.711-4.912-7.493"/>
        <path fill="#2FA1DA" d="M15.617 16.902c.113-1.472.355-2.297.396-2.33a12.495 12.495 0 0 0-3.198 3.823c.555-.075 1.101-.146 1.644-.213a1.553 1.553 0 0 1 1.158-1.28M16.477 25.32a28.723 28.723 0 0 1-.875-5.435 1.565 1.565 0 0 1-1.028-.871c-.97.152-1.694.327-2.133.45a12.161 12.161 0 0 0-.907 4.613c0 2.294.637 4.44 1.742 6.283.085.03 1.996.684 4.68.973.15-.265.378-.482.654-.622a24.085 24.085 0 0 1-2.133-5.391"/>
        <path fill="#FAB415" d="M23.486 19.07c-.053-.01-.103-.02-.156-.027a30.798 30.798 0 0 0-5.782-.317c-.113.51-.482.924-.969 1.11.065 1.426.273 2.988.74 4.558.798 2.681 1.299 4.346 2.211 6.028.565-1.845 1.28-3.956 2.073-5.76a34.061 34.061 0 0 1 2.37-4.507 1.527 1.527 0 0 1-.487-1.086"/>
        <path fill="#7EBD41" d="M23.947 11.805c-2.524 0-4.873.731-6.843 1.989-.003.01-.329 1.272-.477 3.178.405.17.721.502.868.912 2.086-.132 4.129-.077 6.212.362a1.574 1.574 0 0 1 1.348-.754c.23 0 .447.05.644.136a20.744 20.744 0 0 1 4.6-4.133 12.697 12.697 0 0 0-6.352-1.69"/>
        <text fill="#FFF" font-family="NexaBold, Nexa Bold" font-size="20" font-weight="bold">
            <tspan x="55" y="31">Digital </tspan> <tspan x="118.18" y="31" font-family="NexaLight, Nexa Light" font-weight="normal">Lync</tspan>
        </text>
    </g>
</svg>
